<mxfile host="app.diagrams.net" modified="2024-04-25T23:45:07.920Z" agent="Mozilla/5.0 (Windows NT 10.0; Win64; x64) AppleWebKit/537.36 (KHTML, like Gecko) Chrome/124.0.0.0 Safari/537.36" etag="x5v6ZtLNTlE_C5mob1qj" version="24.3.0" type="device">
  <diagram name="PÃ¡gina-1" id="z0D4Ng7YpVz8s1z0a9NZ">
    <mxGraphModel dx="724" dy="665" grid="1" gridSize="10" guides="1" tooltips="1" connect="1" arrows="1" fold="1" page="1" pageScale="1" pageWidth="827" pageHeight="1169" math="0" shadow="0">
      <root>
        <mxCell id="0" />
        <mxCell id="1" parent="0" />
        <mxCell id="EWQgER_F3V7byaEG9548-1" value="" style="shape=cylinder3;whiteSpace=wrap;html=1;boundedLbl=1;backgroundOutline=1;size=15;" vertex="1" parent="1">
          <mxGeometry x="270" y="290" width="60" height="80" as="geometry" />
        </mxCell>
        <mxCell id="EWQgER_F3V7byaEG9548-2" value="" style="ellipse;whiteSpace=wrap;html=1;" vertex="1" parent="1">
          <mxGeometry x="100" y="170" width="120" height="80" as="geometry" />
        </mxCell>
        <mxCell id="EWQgER_F3V7byaEG9548-3" value="" style="ellipse;whiteSpace=wrap;html=1;" vertex="1" parent="1">
          <mxGeometry x="80" y="50" width="120" height="80" as="geometry" />
        </mxCell>
        <mxCell id="EWQgER_F3V7byaEG9548-4" value="" style="shape=document;whiteSpace=wrap;html=1;boundedLbl=1;" vertex="1" parent="1">
          <mxGeometry x="440" y="210" width="120" height="80" as="geometry" />
        </mxCell>
        <mxCell id="EWQgER_F3V7byaEG9548-5" value="" style="shape=tape;whiteSpace=wrap;html=1;" vertex="1" parent="1">
          <mxGeometry x="354" y="100" width="120" height="100" as="geometry" />
        </mxCell>
        <mxCell id="EWQgER_F3V7byaEG9548-6" value="" style="shape=dataStorage;whiteSpace=wrap;html=1;fixedSize=1;" vertex="1" parent="1">
          <mxGeometry x="50" y="370" width="100" height="80" as="geometry" />
        </mxCell>
        <mxCell id="EWQgER_F3V7byaEG9548-7" value="" style="curved=1;endArrow=classic;html=1;rounded=0;" edge="1" parent="1" target="EWQgER_F3V7byaEG9548-8">
          <mxGeometry width="50" height="50" relative="1" as="geometry">
            <mxPoint x="370" y="330" as="sourcePoint" />
            <mxPoint x="240" y="130" as="targetPoint" />
            <Array as="points">
              <mxPoint x="460" y="290" />
              <mxPoint x="450" y="230" />
              <mxPoint x="400" y="100" />
            </Array>
          </mxGeometry>
        </mxCell>
        <mxCell id="EWQgER_F3V7byaEG9548-8" value="" style="html=1;shadow=0;dashed=0;align=center;verticalAlign=middle;shape=mxgraph.arrows2.jumpInArrow;dy=15;dx=38;arrowHead=55;" vertex="1" parent="1">
          <mxGeometry x="190" y="50" width="210" height="130" as="geometry" />
        </mxCell>
        <mxCell id="EWQgER_F3V7byaEG9548-9" value="" style="html=1;shadow=0;dashed=0;align=center;verticalAlign=middle;shape=mxgraph.arrows2.uTurnArrow;dy=11;arrowHead=43;dx2=25;" vertex="1" parent="1">
          <mxGeometry x="150" y="260" width="100" height="100" as="geometry" />
        </mxCell>
      </root>
    </mxGraphModel>
  </diagram>
</mxfile>
